# xmcd
#
# Track frame offsets: 
#        1275
#        28219
#        49134
#        69666
#        92707
#        111511
#        131296
#        157280
#        177033
#        202358
#        223005
#        265070
#
# Disc length: 4440 seconds
#
# Revision: 0
# Processed by: cddbd v1.5.2PL0 Copyright (c) Steve Scherf et al.
# Submitted via: ExactAudioCopy v0.95b4
#
DISCID=c111470c
DTITLE=Marc Jordan - Make Believe Ballroom
DYEAR=2004
DGENRE=Blues
TTITLE0=Lulu the Acrobat
TTITLE1=Let's Waste Some Time
TTITLE2=When Rita Takes the 'A' Train
TTITLE3=Lonesome Town
TTITLE4=Tears of Hercules
TTITLE5=Shot Down My Heart
TTITLE6=Everytime We Say Goodbye
TTITLE7=Timbuktu
TTITLE8=The Best Part of My Life
TTITLE9=I Must Have Said Your Name Loud
TTITLE10=From A Late Night Train
TTITLE11=Bonus
EXTD=
EXTT0=
EXTT1=
EXTT2=
EXTT3=
EXTT4=
EXTT5=
EXTT6=
EXTT7=
EXTT8=
EXTT9=
EXTT10=
EXTT11=
PLAYORDER=
